<svg width="209" height="82" viewBox="0 0 209 82" fill="none" xmlns="http://www.w3.org/2000/svg">
<path d="M9.11199 27.5658L16.8576 26.3895C18.5944 26.1427 19.0883 25.2748 19.0883 24.2219C19.0883 21.6841 17.3515 19.6398 13.3881 19.6398C9.42478 19.6398 7.49867 22.0542 7.18999 25.0897L0.621459 23.6049C1.18118 18.4018 5.88946 13.7581 13.3264 13.7581C22.6236 13.7581 26.1548 19.0229 26.1548 25.0322V40.0204C26.1548 42.7474 26.4635 44.5407 26.5252 44.8533H19.8332C19.7715 44.6682 19.5245 43.4302 19.5245 41.0117C18.1005 43.3027 15.1249 45.7829 10.2273 45.7829C3.90573 45.7829 0 41.4477 0 36.6764C0 31.2882 3.96746 28.3144 9.11199 27.57V27.5658ZM19.0883 32.3371V30.9756L11.2192 32.152C8.98852 32.5222 7.18999 33.7643 7.18999 36.2404C7.18999 38.2847 8.73747 40.1438 11.5896 40.1438C15.6188 40.1438 19.0883 38.223 19.0883 32.3412V32.3371Z" fill="black"/>
<path d="M38.8615 27.5658L46.6071 26.3895C48.3439 26.1427 48.8378 25.2748 48.8378 24.2219C48.8378 21.6841 47.101 19.6398 43.1376 19.6398C39.1743 19.6398 37.2482 22.0542 36.9395 25.0897L30.371 23.6049C30.9307 18.4018 35.639 13.7581 43.0759 13.7581C52.3731 13.7581 55.9043 19.0229 55.9043 25.0322V40.0204C55.9043 42.7474 56.213 44.5407 56.2747 44.8533H49.5827C49.521 44.6682 49.274 43.4302 49.274 41.0117C47.85 43.3027 44.8744 45.7829 39.9768 45.7829C33.6552 45.7829 29.7495 41.4477 29.7495 36.6764C29.7495 31.2882 33.717 28.3144 38.8615 27.57V27.5658ZM48.8378 32.3371V30.9756L40.9687 32.152C38.738 32.5222 36.9395 33.7643 36.9395 36.2404C36.9395 38.2847 38.487 40.1438 41.3391 40.1438C45.3683 40.1438 48.8378 38.223 48.8378 32.3412V32.3371Z" fill="black"/>
<path d="M79.1106 21.8081C78.3039 21.6847 77.4973 21.623 76.7565 21.623C71.1798 21.623 68.6363 24.8436 68.6363 30.4827V44.854H61.4464V14.6841H68.4511V19.5171C69.8751 16.2348 73.2253 14.314 77.1886 14.314C78.057 14.314 78.8019 14.4374 79.1106 14.4991V21.8081Z" fill="black"/>
<path d="M110.664 29.708C110.664 38.9996 104.034 45.7492 94.9836 45.7492C85.9333 45.7492 79.3648 38.9996 79.3648 29.708C79.3648 20.4165 85.9951 13.7285 94.9836 13.7285C103.972 13.7285 110.664 20.4782 110.664 29.708ZM103.412 29.708C103.412 23.452 99.4449 20.2314 94.9836 20.2314C90.5223 20.2314 86.5548 23.452 86.5548 29.708C86.5548 35.9641 90.584 39.3081 94.9836 39.3081C99.3832 39.3081 103.412 36.0258 103.412 29.708Z" fill="black"/>
<path d="M131.477 27.4387L144.12 44.8414H135.321L126.46 32.5143L122.739 36.4177V44.8414H115.611V0H122.739V26.8834L134.329 14.6798H143.873L131.477 27.4387Z" fill="#225FDA"/>
<path d="M147.71 57.0313L154.961 41.2369L142.071 14.666H150.191L158.867 33.7427L166.987 14.666H174.609L155.398 57.0313H147.714H147.71Z" fill="#225FDA"/>
<path d="M183.109 27.5658L190.855 26.3895C192.591 26.1427 193.085 25.2748 193.085 24.2219C193.085 21.6841 191.349 19.6398 187.385 19.6398C183.422 19.6398 181.496 22.0542 181.187 25.0897L174.619 23.6049C175.178 18.4018 179.887 13.7581 187.323 13.7581C196.621 13.7581 200.152 19.0229 200.152 25.0322V40.0204C200.152 42.7474 200.461 44.5407 200.522 44.8533H193.83C193.769 44.6682 193.522 43.4302 193.522 41.0117C192.098 43.3027 189.122 45.7829 184.224 45.7829C177.903 45.7829 173.997 41.4477 173.997 36.6764C173.997 31.2882 177.965 28.3144 183.109 27.57V27.5658ZM193.085 32.3371V30.9756L185.216 32.152C182.986 32.5222 181.187 33.7643 181.187 36.2404C181.187 38.2847 182.735 40.1438 185.587 40.1438C189.616 40.1438 193.085 38.223 193.085 32.3412V32.3371Z" fill="#225FDA"/>
<path d="M197.472 49.6848V71.4721" stroke="#225FDA" stroke-width="6.90972" stroke-miterlimit="10"/>
<path d="M208.341 60.5793H186.541" stroke="#225FDA" stroke-width="6.90972" stroke-miterlimit="10"/>
<path d="M119.514 55.8337C122.342 62.2543 127.165 67.6672 132.997 71.2744C142.471 77.1315 153.798 79.0071 164.593 77.7156C172.902 76.7202 182.323 73.948 189.204 68.3253" stroke="#225FDA" stroke-width="6.90972" stroke-miterlimit="10"/>
</svg>
